<svg xmlns="http://www.w3.org/2000/svg" width="183" height="34" viewBox="0 0 183 34">
  <g fill="none" fill-rule="evenodd">
    <path fill="#EEF2FA" d="M17.344,7.376 C16.32,7.472 15.68,7.472 12.96,7.472 L6.208,7.472 C4.256,7.472 2.976,7.408 1.376,7.248 L1.376,12.848 C2.88,12.688 4.128,12.624 6.208,12.624 L9.28,12.624 C8.992,12.912 8.8,13.136 8.672,13.296 L3.488,19.376 C2.816,20.144 2.016,21.008 0.768,22.224 L0.768,27.088 C1.792,26.992 2.528,26.992 5.088,26.992 L13.088,26.992 C15.36,26.992 16.448,27.056 17.952,27.216 L17.952,21.488 C16.512,21.648 15.104,21.712 13.12,21.712 L9.632,21.712 C9.312,21.712 8.896,21.712 8.672,21.744 C8.928,21.488 9.024,21.36 9.28,21.072 L14.624,14.896 C15.2,14.224 16.128,13.264 17.344,11.984 L17.344,7.376 Z M20.512,0.368 L20.512,5.168 L27.008,5.168 L27.008,0.368 L20.512,0.368 Z M20.416,7.472 C20.608,8.912 20.672,10.224 20.672,12.304 L20.672,22.16 C20.672,24.208 20.608,25.424 20.416,26.992 L27.104,26.992 C26.944,25.616 26.848,23.888 26.848,22.16 L26.848,12.304 C26.848,10.064 26.912,8.784 27.104,7.472 L20.416,7.472 Z M37.056,32.784 L30.496,32.784 C30.656,31.408 30.752,29.808 30.752,28.112 L30.752,12.496 C30.752,10.416 30.688,9.104 30.496,7.472 L36.8,7.472 L36.8,8.56 C36.8,8.752 36.768,9.008 36.768,9.168 C38.688,7.568 40.672,6.896 43.328,6.896 C46.144,6.896 48.448,7.728 50.112,9.36 C51.808,11.056 52.672,13.584 52.672,16.816 C52.672,20.08 51.712,22.736 49.888,24.56 C48.256,26.192 45.92,27.088 43.296,27.088 C41.792,27.088 40.16,26.768 38.976,26.256 C38.144,25.904 37.664,25.552 36.768,24.784 C36.768,25.072 36.768,25.488 36.8,25.936 L36.8,28.144 C36.8,29.936 36.864,31.408 37.056,32.784 Z M41.888,22.256 C43.104,22.256 44.192,21.84 45.024,21.04 C45.92,20.176 46.432,18.704 46.432,16.88 C46.432,13.616 44.704,11.728 41.696,11.728 C39.04,11.728 36.864,14.064 36.864,16.976 C36.864,19.984 39.008,22.256 41.888,22.256 Z M61.792,32.784 L55.232,32.784 C55.392,31.408 55.488,29.808 55.488,28.112 L55.488,12.496 C55.488,10.416 55.424,9.104 55.232,7.472 L61.536,7.472 L61.536,8.56 C61.536,8.752 61.504,9.008 61.504,9.168 C63.424,7.568 65.408,6.896 68.064,6.896 C70.88,6.896 73.184,7.728 74.848,9.36 C76.544,11.056 77.408,13.584 77.408,16.816 C77.408,20.08 76.448,22.736 74.624,24.56 C72.992,26.192 70.656,27.088 68.032,27.088 C66.528,27.088 64.896,26.768 63.712,26.256 C62.88,25.904 62.4,25.552 61.504,24.784 C61.504,25.072 61.504,25.488 61.536,25.936 L61.536,28.144 C61.536,29.936 61.6,31.408 61.792,32.784 Z M66.624,22.256 C67.84,22.256 68.928,21.84 69.76,21.04 C70.656,20.176 71.168,18.704 71.168,16.88 C71.168,13.616 69.44,11.728 66.432,11.728 C63.776,11.728 61.6,14.064 61.6,16.976 C61.6,19.984 63.744,22.256 66.624,22.256 Z M86.4,25.264 L85.728,26.64 C85.248,27.6 84.352,28.144 83.136,28.144 C82.304,28.144 81.696,27.984 80.64,27.44 L79.936,32.528 C81.696,32.912 82.912,33.072 84.32,33.072 C87.968,33.072 90.272,31.696 91.552,28.688 L98.88,11.76 C100,9.136 100,9.136 100.8,7.472 L93.856,7.472 C93.664,8.592 93.376,9.52 92.48,11.728 L89.632,18.992 L86.688,11.6 C86.016,9.872 85.6,8.496 85.44,7.472 L78.496,7.472 C78.912,8.272 79.04,8.56 80.416,11.76 L86.4,25.264 Z M105.216,7.472 L104.064,7.472 C102.944,7.472 102.144,7.408 101.216,7.28 L101.216,12.624 C102.144,12.496 102.976,12.432 104,12.432 L105.216,12.432 L105.216,22.224 C105.216,24.4 105.664,25.488 106.88,26.416 C107.904,27.184 109.408,27.536 111.584,27.536 C113.312,27.536 114.56,27.344 116,26.896 L115.52,22.032 C114.72,22.448 114.112,22.608 113.28,22.608 C112.672,22.608 112.16,22.48 111.808,22.256 C111.392,21.968 111.232,21.52 111.232,20.624 L111.232,12.432 L112.576,12.432 C113.728,12.432 114.56,12.496 115.52,12.624 L115.52,7.312 C114.528,7.44 113.792,7.472 112.384,7.472 L111.232,7.472 L111.232,6.8 C111.232,5.264 111.328,3.728 111.488,2.416 L104.96,2.416 C105.152,3.92 105.216,5.2 105.216,6.8 L105.216,7.472 Z M137.472,19.024 L123.072,19.024 C123.392,21.616 124.896,22.992 127.424,22.992 C128.704,22.992 129.824,22.576 130.656,21.808 C131.136,21.36 131.36,21.008 131.616,20.176 L137.184,21.744 C136.448,23.408 135.968,24.144 135.072,25.04 C133.248,26.832 130.688,27.76 127.52,27.76 C124.384,27.76 121.92,26.864 120.096,25.04 C118.208,23.12 117.184,20.4 117.184,17.232 C117.184,10.896 121.248,6.704 127.36,6.704 C132.352,6.704 135.84,9.424 136.96,14.192 C137.216,15.216 137.344,16.56 137.44,18.384 C137.44,18.512 137.44,18.704 137.472,19.024 Z M123.168,14.608 L131.392,14.608 C130.944,12.56 129.568,11.472 127.36,11.472 C125.088,11.472 123.712,12.496 123.168,14.608 Z M158.88,13.392 C157.824,9.136 154.4,6.704 149.472,6.704 C143.232,6.704 139.2,10.8 139.2,17.2 C139.2,20.336 140.224,23.152 142.08,24.976 C143.84,26.768 146.464,27.728 149.536,27.728 C153.248,27.728 156.16,26.416 157.76,24.048 C158.368,23.12 158.752,22.256 159.104,20.88 L153.216,19.952 C153.088,20.688 152.928,21.008 152.64,21.424 C152,22.32 150.848,22.832 149.6,22.832 C147.04,22.832 145.408,20.592 145.408,17.136 C145.408,13.616 146.944,11.568 149.536,11.568 C150.688,11.568 151.584,11.952 152.224,12.688 C152.64,13.168 152.832,13.616 153.12,14.576 L158.88,13.392 Z M168.224,26.992 L161.6,26.992 C161.792,25.488 161.856,24.144 161.856,22.16 L161.856,5.2 C161.856,2.992 161.792,1.616 161.6,0.368 L168.224,0.368 C168.032,1.776 167.968,2.928 167.968,5.2 L167.968,8.592 C167.968,8.848 167.936,9.36 167.936,9.648 C169.856,7.792 171.872,6.992 174.592,6.992 C176.768,6.992 178.496,7.6 179.68,8.784 C180.96,10.064 181.504,11.632 181.504,14.16 L181.504,22.192 C181.504,24.048 181.6,25.648 181.76,26.992 L175.104,26.992 C175.296,25.456 175.36,24.112 175.36,22.16 L175.36,15.6 C175.36,14.32 175.232,13.744 174.848,13.2 C174.4,12.624 173.696,12.336 172.8,12.336 C170.976,12.336 169.248,13.552 167.968,15.664 L167.968,22.16 C167.968,23.984 168.032,25.328 168.224,26.992 Z"/>
    <rect width="6.5" height="5.3" x="20.5" fill="#F5A623"/>
  </g>
</svg>
